<svg width="1288" height="470" viewBox="0 0 1288 470" fill="none" xmlns="http://www.w3.org/2000/svg">
<path d="M491.921 360.826H802.869M1.47116 -167.329L1.47113 469.303M42.9309 -167.329L42.9309 469.303M84.3906 -167.329L84.3906 469.303M125.85 -167.329L125.85 469.303M167.31 -167.329L167.31 469.303M208.77 -167.329L208.77 469.303M250.23 -167.329L250.23 469.303M291.689 -167.329L291.689 469.303M333.149 -167.329L333.149 469.303M1 443.962H1286.25M374.609 -167.329L374.609 469.303M1 404.839H1286.25M416.069 -167.329L416.069 469.303M1 365.717H1286.25M457.528 -167.329L457.528 469.303M1 326.594H1286.25M498.988 -167.329L498.988 469.303M1 287.471H1286.25M540.448 -167.329L540.448 469.303M1 248.349H1286.25M581.908 -167.329L581.907 469.303M1 209.226H1286.25M623.367 -167.329L623.367 469.303M1 170.104H1286.25M664.827 -167.329L664.827 469.303M1 130.981H1286.25M706.287 -167.329L706.287 469.303M1 91.8584H1286.25M747.747 -167.329L747.746 469.303M1 52.7357H1286.25M789.206 -167.329L789.206 469.303M1 13.6131H1286.25M830.666 -167.329L830.666 469.303M1 -25.5095H1286.25M872.126 -167.329L872.126 469.303M1 -64.6321H1286.25M913.585 -167.329L913.585 469.303M1 -103.755H1286.25M955.045 -167.329L955.045 469.303M1 -142.877H1286.25M996.505 -167.329V469.303M1 -182L1286.25 -182M1037.96 -167.329V469.303M1079.42 -167.329V469.303M1120.88 -167.329V469.303M1162.34 -167.329V469.303M1203.8 -167.329V469.303M1245.26 -167.329V469.303M1286.72 -167.329V469.303" stroke="url(#paint0_radial_6001_3429)"/>
<defs>
<radialGradient id="paint0_radial_6001_3429" cx="0" cy="0" r="1" gradientUnits="userSpaceOnUse" gradientTransform="translate(643.862 105) rotate(90) scale(364.303 719.163)">
<stop stop-color="white" stop-opacity="0.12"/>
<stop offset="0.6" stop-color="white" stop-opacity="0"/>
</radialGradient>
</defs>
</svg>
