<svg width="7" height="14" viewBox="0 0 7 14" fill="none" xmlns="http://www.w3.org/2000/svg">
<path d="M6.41847 7.38722L0.949718 12.856C0.898908 12.9068 0.838587 12.9471 0.772201 12.9746C0.705814 13.0021 0.634661 13.0162 0.562804 13.0162C0.490947 13.0162 0.419794 13.0021 0.353408 12.9746C0.287021 12.9471 0.2267 12.9068 0.17589 12.856C0.125079 12.8052 0.0847746 12.7448 0.0572763 12.6785C0.029778 12.6121 0.015625 12.5409 0.015625 12.4691C0.015625 12.3972 0.029778 12.326 0.0572763 12.2597C0.0847746 12.1933 0.125079 12.133 0.17589 12.0821L5.25841 7.0003L0.17589 1.91847C0.0732738 1.81585 0.015625 1.67667 0.015625 1.53155C0.015625 1.38643 0.0732738 1.24726 0.17589 1.14464C0.278506 1.04202 0.417683 0.984375 0.562804 0.984375C0.707925 0.984375 0.847102 1.04202 0.949718 1.14464L6.41847 6.61339C6.46932 6.66418 6.50965 6.72449 6.53717 6.79088C6.56469 6.85727 6.57886 6.92844 6.57886 7.0003C6.57886 7.07217 6.56469 7.14333 6.53717 7.20972C6.50965 7.27611 6.46932 7.33643 6.41847 7.38722Z" fill="white"/>
</svg>
