<svg width="12" height="14" viewBox="0 0 12 14" fill="none" xmlns="http://www.w3.org/2000/svg">
<path fill-rule="evenodd" clip-rule="evenodd" d="M11.82 3.74634L11.7267 3.57967C11.6063 3.37813 11.4365 3.21063 11.2333 3.09301L6.76 0.513008C6.55746 0.395508 6.32753 0.333421 6.09333 0.333008H5.9C5.6658 0.333421 5.43586 0.395508 5.23333 0.513008L0.76 3.09967C0.55798 3.21651 0.390173 3.38432 0.273333 3.58634L0.18 3.75301C0.0625 3.95557 0.000413333 4.1855 0 4.41967V9.58634C0.000413333 9.82054 0.0625 10.0505 0.18 10.253L0.273333 10.4197C0.393193 10.6193 0.560326 10.7865 0.76 10.9063L5.24 13.4863C5.44153 13.6063 5.67213 13.6685 5.90666 13.6663H6.09333C6.32753 13.6659 6.55746 13.6039 6.76 13.4863L11.2333 10.8997C11.4373 10.7855 11.6058 10.617 11.72 10.413L11.82 10.2463C11.9361 10.0432 11.9981 9.81367 12 9.57967V4.41301C11.9996 4.17883 11.9375 3.9489 11.82 3.74634ZM5.9 1.66634H6.09333L10 3.91967L6 6.22634L2 3.91967L5.9 1.66634ZM6.66666 11.9997L10.5667 9.74634L10.6667 9.57967V5.07301L6.66666 7.38634V11.9997Z" fill="#F3ECFE" fill-opacity="0.7"/>
</svg>
