<svg width="99" height="34" viewBox="0 0 99 34" fill="none" xmlns="http://www.w3.org/2000/svg">
<g clip-path="url(#clip0_6001_3448)">
<path d="M20 16.797V17.3334H19.9284C14.5762 17.3334 10.2342 21.657 10.2066 27H9.72541C9.69602 21.6552 5.35219 17.3334 0 17.3334V16.797C5.37056 16.797 9.72541 12.4422 9.72541 7.07163V7H10.2066V7.07163C10.2066 12.4422 14.5578 16.797 19.9284 16.797H20Z" fill="url(#paint0_linear_6001_3448)"/>
</g>
<path d="M26.1399 25H21.5057L29.353 9.18182H35.223L37.8182 25H33.1839L31.6392 13.538H31.5156L26.1399 25ZM26.3253 18.7592H35.0376L34.4815 21.9723H25.7692L26.3253 18.7592ZM48.8029 14.125C48.8493 13.6152 48.7257 13.2162 48.4322 12.9278C48.1387 12.6343 47.6444 12.4876 46.9493 12.4876C46.5064 12.4876 46.1357 12.5391 45.837 12.642C45.5435 12.745 45.3144 12.8866 45.1496 13.0669C44.99 13.2471 44.8896 13.4556 44.8484 13.6925C44.8021 13.8778 44.8046 14.0478 44.8561 14.2022C44.9128 14.3516 45.0183 14.488 45.1728 14.6116C45.3324 14.7352 45.541 14.8459 45.7984 14.9437C46.061 15.0415 46.3725 15.1291 46.733 15.2063L47.9688 15.4844C48.8132 15.6697 49.5213 15.9143 50.0928 16.2181C50.6695 16.5168 51.1226 16.8721 51.4522 17.284C51.7817 17.6959 51.998 18.1568 52.101 18.6665C52.2091 19.1763 52.2117 19.7324 52.1087 20.3349C51.9336 21.375 51.5294 22.2555 50.8961 22.9764C50.2627 23.6973 49.4363 24.2456 48.4168 24.6215C47.3972 24.9974 46.2181 25.1854 44.8793 25.1854C43.5096 25.1854 42.3459 24.982 41.3882 24.5752C40.4356 24.1633 39.7456 23.5351 39.3182 22.6906C38.896 21.841 38.793 20.7571 39.0093 19.4389H43.0874C43.0256 19.9229 43.0771 20.3297 43.2419 20.6593C43.4066 20.9888 43.6718 21.2385 44.0374 21.4085C44.403 21.5784 44.8587 21.6634 45.4045 21.6634C45.8679 21.6634 46.2644 21.6067 46.594 21.4934C46.9235 21.3801 47.1835 21.2231 47.3741 21.0223C47.5646 20.8215 47.6804 20.5923 47.7216 20.3349C47.7628 20.098 47.7216 19.8869 47.598 19.7015C47.4745 19.5162 47.2505 19.3488 46.9261 19.1995C46.6017 19.0502 46.1563 18.9137 45.5899 18.7901L44.076 18.4503C42.7321 18.1413 41.7177 17.6316 41.0329 16.921C40.348 16.2104 40.106 15.2372 40.3069 14.0014C40.4716 12.9922 40.8861 12.1117 41.5504 11.3599C42.2198 10.603 43.0694 10.016 44.0992 9.5989C45.1342 9.17667 46.2799 8.96555 47.5363 8.96555C48.8132 8.96555 49.8817 9.17924 50.7416 9.60662C51.6067 10.034 52.2271 10.6339 52.603 11.4062C52.9841 12.1786 53.087 13.0849 52.912 14.125H48.8029ZM54.3348 12.642L54.9218 9.18182H68.67L68.083 12.642H63.3252L61.2861 25H57.0535L59.0926 12.642H54.3348ZM67.4184 25L70.0445 9.18182H76.8723C78.0463 9.18182 79.0375 9.39551 79.8459 9.82289C80.6543 10.2503 81.2362 10.8656 81.5915 11.6689C81.9468 12.4721 82.0317 13.435 81.8464 14.5575C81.661 15.6903 81.2516 16.6455 80.6183 17.423C79.9901 18.1954 79.1894 18.7824 78.2162 19.184C77.2482 19.5805 76.1617 19.7788 74.9568 19.7788H70.8787L71.4348 16.4421H74.6478C75.1525 16.4421 75.5953 16.3803 75.9763 16.2567C76.3574 16.128 76.6663 15.9272 76.9032 15.6543C77.14 15.3762 77.2945 15.0107 77.3666 14.5575C77.4387 14.1044 77.4026 13.7362 77.2585 13.453C77.1143 13.1647 76.8749 12.9536 76.5402 12.8197C76.2055 12.6807 75.791 12.6111 75.2966 12.6111H73.7828L71.7128 25H67.4184ZM77.8918 17.7397L80.6415 25H75.9763L73.3194 17.7397H77.8918ZM87.0152 25H82.3809L87.6022 9.18182H93.4722L98.6934 25H94.0592L90.599 13.538H90.4754L87.0152 25ZM86.1501 18.7592H94.8625V21.9723H86.1501V18.7592Z" fill="url(#paint1_linear_6001_3448)"/>
<defs>
<linearGradient id="paint0_linear_6001_3448" x1="10" y1="7" x2="10" y2="27" gradientUnits="userSpaceOnUse">
<stop stop-color="#F3ECFE"/>
<stop offset="1" stop-color="#B039FF"/>
</linearGradient>
<linearGradient id="paint1_linear_6001_3448" x1="24" y1="18" x2="115" y2="18" gradientUnits="userSpaceOnUse">
<stop stop-color="#E8DAFF"/>
<stop offset="1" stop-color="white"/>
</linearGradient>
<clipPath id="clip0_6001_3448">
<rect width="20" height="20" fill="white" transform="translate(0 7)"/>
</clipPath>
</defs>
</svg>
