<svg width="133" height="37" viewBox="0 0 133 37" fill="none" xmlns="http://www.w3.org/2000/svg">
<path fill-rule="evenodd" clip-rule="evenodd" d="M31.5517 9.23552L31.8029 9.68396C32.1191 10.2289 32.2861 10.8476 32.2872 11.4776V25.3791C32.282 26.0086 32.1152 26.6262 31.8029 27.1728L31.5338 27.6213C31.2266 28.1703 30.7733 28.6234 30.2245 28.9307L18.1884 35.8903C17.6434 36.2065 17.0248 36.3735 16.3947 36.3747H15.8925C15.2615 36.3806 14.641 36.213 14.0987 35.8903L2.04486 28.9487C1.50761 28.6261 1.05792 28.1765 0.735434 27.6392L0.48431 27.1908C0.168157 26.6457 0.00111999 26.0271 0 25.397V11.4955C0.00111999 10.8656 0.168157 10.2468 0.48431 9.70189L0.735434 9.25346C1.04979 8.70991 1.50131 8.25832 2.04486 7.94403L14.0808 0.98431C14.6258 0.668174 15.2444 0.501137 15.8745 0.5H16.3947C17.0248 0.501137 17.6434 0.668174 18.1884 0.98431L30.2245 7.92609C30.7711 8.24249 31.2279 8.6932 31.5517 9.23552ZM16.3947 4.08739H15.8745L5.38122 10.1502L16.1436 16.3565L26.906 10.1502L16.3947 4.08739ZM28.4306 25.8276L17.9373 31.8905V19.4778L28.6997 13.2536V25.3792L28.4306 25.8276ZM79.0633 27.0475H75.3438V7.41687H79.0633V27.0475ZM45.5 27.4683H49.6586V20.3392H51.4667L55.8836 27.4683H60.3263L55.4445 19.6161C57.6142 18.9703 59.2415 17.498 59.2415 14.7084V14.605C59.2415 10.7823 56.4777 9 52.1124 9H45.5V27.4683ZM49.6586 17.498V12.2029H52.0091C54.0239 12.2029 55.1604 12.8487 55.1604 14.7342V14.8375C55.1604 16.6198 54.1014 17.498 52.0091 17.498H49.6586ZM67.0806 27.3309C70.7742 27.3309 73.0989 25.7037 73.538 22.7849H69.9993C69.7668 23.9214 68.9145 24.6705 67.1839 24.6705C65.1433 24.6705 63.9294 23.379 63.826 21.1318H73.5639V20.0986C73.5639 15.2684 70.4643 13.2279 66.9772 13.2279C63.0511 13.2279 60.029 15.9917 60.029 20.2536V20.4602C60.029 24.7738 62.9994 27.3309 67.0806 27.3309ZM63.8777 18.833C64.1618 16.9215 65.2983 15.8109 66.9772 15.8109C68.7595 15.8109 69.7927 16.7924 69.9219 18.833H63.8777ZM86.1985 27.332C88.4201 27.332 89.7886 26.2988 90.486 24.9299V27.0479H94.2056V13.5389H90.486V21.4687C90.486 23.4576 89.2461 24.4391 87.6711 24.4391C86.0698 24.4391 85.32 23.5609 85.32 21.727V13.5389H81.6009V22.2436C81.6009 25.7822 83.5639 27.332 86.1985 27.332ZM100.491 27.0468H96.7448V13.5378H100.491V15.6042C101.162 14.3385 102.608 13.2279 104.623 13.2279C106.406 13.2279 107.749 13.977 108.395 15.5784C109.479 13.9511 111.236 13.2279 112.94 13.2279C115.446 13.2279 117.383 14.8035 117.383 18.3939V27.0468H113.664V18.8071C113.664 17.0765 112.888 16.3016 111.545 16.3016C110.099 16.3016 108.937 17.2315 108.937 19.0654V27.0468H105.217V18.8071C105.217 17.0765 104.417 16.3016 103.099 16.3016C101.653 16.3016 100.491 17.2315 100.491 19.0654V27.0468ZM126.031 27.3309C129.726 27.3309 132.051 25.7037 132.489 22.7849H128.95C128.718 23.9214 127.865 24.6705 126.135 24.6705C124.094 24.6705 122.881 23.379 122.777 21.1318H132.515V20.0986C132.515 15.2684 129.415 13.2279 125.928 13.2279C122.002 13.2279 118.98 15.9917 118.98 20.2536V20.4602C118.98 24.7738 121.95 27.3309 126.031 27.3309ZM122.829 18.833C123.113 16.9215 124.25 15.8109 125.928 15.8109C127.711 15.8109 128.744 16.7924 128.873 18.833H122.829Z" fill="#F3ECFE" fill-opacity="0.3"/>
</svg>
